<mxfile host="app.diagrams.net" modified="2021-10-15T15:28:24.561Z" agent="5.0 (Android 11)" etag="ubMk3vv458RYSuvoYktL" version="15.5.4" type="github">
  <diagram id="gX2UoRFEQiRNoJe99xIo" name="Page-1">
    <mxGraphModel dx="374" dy="760" grid="0" gridSize="10" guides="1" tooltips="1" connect="1" arrows="1" fold="1" page="0" pageScale="1" pageWidth="827" pageHeight="1169" math="0" shadow="0">
      <root>
        <mxCell id="0" />
        <mxCell id="1" parent="0" />
        <mxCell id="n5WvtsOC60LK9vhKl_Dy-1" value="&lt;br&gt;提出问题" style="rounded=0;whiteSpace=wrap;html=1;sketch=1;hachureGap=4;pointerEvents=0;fontFamily=Architects Daughter;fontSource=https%3A%2F%2Ffonts.googleapis.com%2Fcss%3Ffamily%3DArchitects%2BDaughter;fontSize=20;" vertex="1" parent="1">
          <mxGeometry x="92" y="226" width="142" height="84" as="geometry" />
        </mxCell>
        <UserObject label="数据获取" tooltip="分析" id="n5WvtsOC60LK9vhKl_Dy-3">
          <mxCell style="rounded=0;whiteSpace=wrap;html=1;sketch=1;hachureGap=4;pointerEvents=0;fontFamily=Architects Daughter;fontSource=https%3A%2F%2Ffonts.googleapis.com%2Fcss%3Ffamily%3DArchitects%2BDaughter;fontSize=20;" vertex="1" parent="1">
            <mxGeometry x="63" y="316" width="175" height="66" as="geometry" />
          </mxCell>
        </UserObject>
        <mxCell id="n5WvtsOC60LK9vhKl_Dy-5" value="分析问题" style="rounded=0;whiteSpace=wrap;html=1;sketch=1;hachureGap=4;pointerEvents=0;fontFamily=Architects Daughter;fontSource=https%3A%2F%2Ffonts.googleapis.com%2Fcss%3Ffamily%3DArchitects%2BDaughter;fontSize=20;" vertex="1" parent="1">
          <mxGeometry x="74" y="394" width="160" height="80" as="geometry" />
        </mxCell>
        <mxCell id="n5WvtsOC60LK9vhKl_Dy-7" value="结论总结" style="rounded=0;whiteSpace=wrap;html=1;sketch=1;hachureGap=4;pointerEvents=0;fontFamily=Architects Daughter;fontSource=https%3A%2F%2Ffonts.googleapis.com%2Fcss%3Ffamily%3DArchitects%2BDaughter;fontSize=20;" vertex="1" parent="1">
          <mxGeometry x="81" y="483" width="175" height="66" as="geometry" />
        </mxCell>
        <mxCell id="n5WvtsOC60LK9vhKl_Dy-14" style="edgeStyle=none;curved=1;rounded=0;sketch=1;hachureGap=4;orthogonalLoop=1;jettySize=auto;html=1;fontFamily=Architects Daughter;fontSource=https%3A%2F%2Ffonts.googleapis.com%2Fcss%3Ffamily%3DArchitects%2BDaughter;fontSize=20;endArrow=open;startSize=14;endSize=14;sourcePerimeterSpacing=8;targetPerimeterSpacing=8;" edge="1" parent="1">
          <mxGeometry relative="1" as="geometry">
            <mxPoint x="475" y="102.5666666666666" as="sourcePoint" />
            <mxPoint x="475" y="120.4333333333334" as="targetPoint" />
          </mxGeometry>
        </mxCell>
        <mxCell id="n5WvtsOC60LK9vhKl_Dy-16" value="Text" style="text;strokeColor=none;fillColor=none;html=1;align=center;verticalAlign=middle;whiteSpace=wrap;rounded=0;sketch=1;hachureGap=4;pointerEvents=0;fontFamily=Architects Daughter;fontSource=https%3A%2F%2Ffonts.googleapis.com%2Fcss%3Ffamily%3DArchitects%2BDaughter;fontSize=20;" vertex="1" parent="1">
          <mxGeometry x="292" y="249" width="60" height="30" as="geometry" />
        </mxCell>
      </root>
    </mxGraphModel>
  </diagram>
</mxfile>
